<?xml version="1.0" encoding="UTF-8"?>
<svg id="Layer_1" data-name="Layer 1" xmlns="http://www.w3.org/2000/svg" viewBox="0 0 329.36 176.94">
  <defs>
    <style>
      .cls-1 {
        fill: #fff;
        stroke: #000;
        stroke-miterlimit: 10;
      }
    </style>
  </defs>
  <polyline class="cls-1" points="259.23 86.81 89.19 86.81 19.23 86.81 19.23 53.11"/>
  <polyline class="cls-1" points="259.23 160.34 259.23 13.28 302.72 13.28"/>
  <line class="cls-1" x1="139.23" y1="53.11" x2="139.23" y2="86.81"/>
  <line class="cls-1" x1="231.15" y1="53.11" x2="231.15" y2="86.81"/>
  <line class="cls-1" x1="77.96" y1="69.96" x2="77.96" y2="86.81"/>
  <line class="cls-1" x1="185.19" y1="69.96" x2="185.19" y2="86.81"/>
  <path d="M21.88,40.41c0,2.65-.98,4.11-2.71,4.11-1.52,0-2.55-1.43-2.58-4.01,0-2.61,1.13-4.05,2.71-4.05s2.58,1.46,2.58,3.95ZM17.64,40.53c0,2.03.62,3.18,1.58,3.18,1.08,0,1.6-1.26,1.6-3.25s-.49-3.18-1.58-3.18c-.92,0-1.6,1.13-1.6,3.25Z"/>
  <path d="M138.53,37.71h-.02l-1.36.73-.2-.8,1.7-.91h.9v7.8h-1.02v-6.81Z"/>
  <path d="M229.3,44.52v-.65l.83-.8c1.99-1.9,2.89-2.9,2.9-4.08,0-.79-.38-1.52-1.55-1.52-.71,0-1.29.36-1.66.66l-.34-.74c.54-.46,1.31-.79,2.21-.79,1.68,0,2.39,1.15,2.39,2.27,0,1.44-1.04,2.6-2.69,4.19l-.62.58v.02h3.5v.88h-4.98Z"/>
  <line class="cls-1" x1="259.23" y1="160.34" x2="302.72" y2="160.34"/>
  <g>
    <path d="M311.27,163.86v-2.12h-3.62v-.7l3.48-4.98h1.14v4.85h1.09v.83h-1.09v2.12h-1ZM311.27,160.91v-2.6c0-.41.01-.82.04-1.22h-.04c-.24.46-.43.79-.65,1.15l-1.91,2.65v.02h2.55Z"/>
    <path d="M319.34,159.88c0,2.65-.98,4.11-2.71,4.11-1.52,0-2.55-1.43-2.58-4.01,0-2.61,1.13-4.05,2.71-4.05s2.58,1.46,2.58,3.95ZM315.11,160c0,2.03.62,3.18,1.58,3.18,1.08,0,1.59-1.26,1.59-3.25s-.49-3.18-1.58-3.18c-.92,0-1.59,1.13-1.59,3.25Z"/>
  </g>
  <g>
    <path d="M308.69,15.08c.3.19,1,.49,1.73.49,1.36,0,1.78-.86,1.76-1.51-.01-1.09-1-1.56-2.01-1.56h-.59v-.79h.59c.77,0,1.74-.4,1.74-1.32,0-.62-.4-1.18-1.37-1.18-.62,0-1.22.28-1.56.52l-.28-.77c.41-.3,1.2-.6,2.04-.6,1.54,0,2.23.91,2.23,1.86,0,.8-.48,1.49-1.44,1.83v.02c.96.19,1.74.91,1.74,2,0,1.25-.97,2.34-2.84,2.34-.88,0-1.64-.28-2.03-.53l.29-.82Z"/>
    <path d="M319.77,12.31c0,2.65-.98,4.11-2.71,4.11-1.52,0-2.55-1.43-2.58-4.01,0-2.61,1.13-4.05,2.71-4.05s2.58,1.46,2.58,3.95ZM315.54,12.43c0,2.03.62,3.18,1.58,3.18,1.08,0,1.59-1.26,1.59-3.25s-.49-3.18-1.58-3.18c-.92,0-1.59,1.13-1.59,3.25Z"/>
  </g>
  <line class="cls-1" x1="291.06" y1="86.81" x2="259.23" y2="86.81"/>
  <line class="cls-1" x1="284.17" y1="29.36" x2="259.23" y2="29.36"/>
  <line class="cls-1" x1="284.17" y1="44.52" x2="259.23" y2="44.52"/>
  <line class="cls-1" x1="284.17" y1="59.15" x2="259.23" y2="59.15"/>
  <line class="cls-1" x1="284.17" y1="73.79" x2="259.23" y2="73.79"/>
  <line class="cls-1" x1="285.15" y1="101.36" x2="260.21" y2="101.36"/>
  <line class="cls-1" x1="285.15" y1="116.52" x2="260.21" y2="116.52"/>
  <line class="cls-1" x1="285.15" y1="131.15" x2="260.21" y2="131.15"/>
  <line class="cls-1" x1="285.15" y1="145.79" x2="260.21" y2="145.79"/>
</svg>