<?xml version="1.0" encoding="UTF-8"?>
<svg id="Layer_1" data-name="Layer 1" xmlns="http://www.w3.org/2000/svg" viewBox="0 0 329.36 176.94">
  <defs>
    <style>
      .cls-1 {
        fill: #fff;
        stroke: #000;
        stroke-miterlimit: 10;
      }
    </style>
  </defs>
  <polyline class="cls-1" points="255.87 88.47 85.83 88.47 15.87 88.47 15.87 54.77"/>
  <line class="cls-1" x1="256.09" y1="117.92" x2="299.57" y2="117.92"/>
  <line class="cls-1" x1="255.87" y1="162" x2="255.87" y2="14.94"/>
  <line class="cls-1" x1="135.87" y1="54.77" x2="135.87" y2="88.47"/>
  <line class="cls-1" x1="227.79" y1="54.77" x2="227.79" y2="88.47"/>
  <line class="cls-1" x1="74.59" y1="71.62" x2="74.59" y2="88.47"/>
  <line class="cls-1" x1="181.83" y1="71.62" x2="181.83" y2="88.47"/>
  <path d="M18.51,42.07c0,2.65-.98,4.11-2.71,4.11-1.52,0-2.55-1.43-2.58-4.01,0-2.61,1.13-4.05,2.71-4.05s2.58,1.46,2.58,3.95ZM14.28,42.19c0,2.03.62,3.18,1.58,3.18,1.08,0,1.59-1.26,1.59-3.25s-.49-3.18-1.58-3.18c-.92,0-1.59,1.13-1.59,3.25Z"/>
  <path d="M135.16,39.37h-.02l-1.36.73-.2-.8,1.7-.91h.9v7.8h-1.02v-6.81Z"/>
  <path d="M225.94,46.18v-.65l.83-.8c1.99-1.9,2.89-2.9,2.9-4.08,0-.79-.38-1.52-1.55-1.52-.71,0-1.29.36-1.66.66l-.34-.74c.54-.46,1.31-.79,2.21-.79,1.68,0,2.39,1.15,2.39,2.27,0,1.44-1.04,2.6-2.69,4.19l-.62.58v.02h3.5v.88h-4.98Z"/>
  <g>
    <path d="M305.22,121.72v-2.12h-3.62v-.7l3.48-4.98h1.14v4.85h1.09v.83h-1.09v2.12h-1ZM305.22,118.77v-2.6c0-.41.01-.82.04-1.22h-.04c-.24.46-.43.79-.65,1.15l-1.91,2.65v.02h2.55Z"/>
    <path d="M313.29,117.73c0,2.65-.98,4.11-2.71,4.11-1.52,0-2.55-1.43-2.58-4.01,0-2.61,1.13-4.05,2.71-4.05s2.58,1.46,2.58,3.95ZM309.06,117.85c0,2.03.62,3.18,1.58,3.18,1.08,0,1.59-1.26,1.59-3.25s-.49-3.18-1.58-3.18c-.92,0-1.59,1.13-1.59,3.25Z"/>
  </g>
  <line class="cls-1" x1="287.7" y1="88.47" x2="255.87" y2="88.47"/>
  <line class="cls-1" x1="280.81" y1="31.02" x2="255.87" y2="31.02"/>
  <line class="cls-1" x1="280.81" y1="147.41" x2="255.87" y2="147.41"/>
  <line class="cls-1" x1="280.81" y1="60.81" x2="255.87" y2="60.81"/>
  <line class="cls-1" x1="280.81" y1="14.94" x2="255.87" y2="14.94"/>
  <line class="cls-1" x1="281.79" y1="103.02" x2="256.85" y2="103.02"/>
  <line class="cls-1" x1="280.81" y1="74.64" x2="255.87" y2="74.64"/>
  <line class="cls-1" x1="281.79" y1="132.81" x2="256.85" y2="132.81"/>
  <line class="cls-1" x1="280.81" y1="162" x2="255.87" y2="162"/>
  <line class="cls-1" x1="287.7" y1="46.18" x2="255.87" y2="46.18"/>
</svg>