<?xml version="1.0" encoding="UTF-8"?>
<svg id="Layer_1" data-name="Layer 1" xmlns="http://www.w3.org/2000/svg" viewBox="0 0 329.36 176.94">
  <defs>
    <style>
      .cls-1 {
        fill: #fff;
        stroke: #000;
        stroke-miterlimit: 10;
      }
    </style>
  </defs>
  <polyline class="cls-1" points="247.2 87.17 77.16 87.17 7.2 87.17 7.2 53.47"/>
  <line class="cls-1" x1="247.2" y1="74.51" x2="290.69" y2="74.51"/>
  <line class="cls-1" x1="247.2" y1="160.7" x2="247.2" y2="13.64"/>
  <line class="cls-1" x1="127.2" y1="53.47" x2="127.2" y2="87.17"/>
  <line class="cls-1" x1="219.12" y1="53.47" x2="219.12" y2="87.17"/>
  <line class="cls-1" x1="65.93" y1="70.32" x2="65.93" y2="87.17"/>
  <line class="cls-1" x1="173.16" y1="70.32" x2="173.16" y2="87.17"/>
  <path d="M9.85,40.77c0,2.65-.98,4.11-2.71,4.11-1.52,0-2.55-1.43-2.58-4.01,0-2.61,1.13-4.05,2.71-4.05s2.58,1.46,2.58,3.95ZM5.61,40.89c0,2.03.62,3.18,1.58,3.18,1.08,0,1.6-1.26,1.6-3.25s-.49-3.18-1.58-3.18c-.92,0-1.6,1.13-1.6,3.25Z"/>
  <path d="M126.5,38.07h-.02l-1.36.73-.2-.8,1.7-.91h.9v7.8h-1.02v-6.81Z"/>
  <path d="M217.27,44.88v-.65l.83-.8c1.99-1.9,2.89-2.9,2.9-4.08,0-.79-.38-1.52-1.55-1.52-.71,0-1.3.36-1.66.66l-.34-.74c.54-.46,1.31-.79,2.21-.79,1.68,0,2.39,1.15,2.39,2.27,0,1.44-1.04,2.6-2.69,4.19l-.62.58v.02h3.5v.88h-4.98Z"/>
  <g>
    <path d="M296.37,78.75v-2.12h-3.62v-.7l3.48-4.98h1.14v4.85h1.09v.83h-1.09v2.12h-1ZM296.37,75.8v-2.6c0-.41.01-.82.04-1.22h-.04c-.24.46-.43.79-.65,1.15l-1.91,2.65v.02h2.55Z"/>
    <path d="M304.45,74.76c0,2.65-.98,4.11-2.71,4.11-1.52,0-2.55-1.43-2.58-4.01,0-2.61,1.13-4.05,2.71-4.05s2.58,1.46,2.58,3.95ZM300.21,74.88c0,2.03.62,3.18,1.58,3.18,1.08,0,1.59-1.26,1.59-3.25s-.49-3.18-1.58-3.18c-.92,0-1.59,1.13-1.59,3.25Z"/>
  </g>
  <line class="cls-1" x1="279.03" y1="87.17" x2="247.2" y2="87.17"/>
  <line class="cls-1" x1="272.14" y1="29.73" x2="247.2" y2="29.73"/>
  <line class="cls-1" x1="272.14" y1="44.88" x2="247.2" y2="44.88"/>
  <line class="cls-1" x1="272.14" y1="59.52" x2="247.2" y2="59.52"/>
  <line class="cls-1" x1="272.14" y1="13.64" x2="247.2" y2="13.64"/>
  <line class="cls-1" x1="273.12" y1="101.73" x2="248.18" y2="101.73"/>
  <line class="cls-1" x1="273.12" y1="116.88" x2="248.18" y2="116.88"/>
  <line class="cls-1" x1="273.12" y1="131.52" x2="248.18" y2="131.52"/>
  <line class="cls-1" x1="272.14" y1="160.7" x2="247.2" y2="160.7"/>
  <line class="cls-1" x1="279.03" y1="147.36" x2="247.2" y2="147.36"/>
</svg>